<?xml version="1.0" encoding="UTF-8" standalone="no"?>
<svg
   viewBox="186 38 500 300"
   version="1.1"
   id="svg18"
   sodipodi:docname="googlecalendar_icon.svg"
   width="500"
   height="300"
   inkscape:version="1.1.1 (3bf5ae0d25, 2021-09-20)"
   xmlns:inkscape="http://www.inkscape.org/namespaces/inkscape"
   xmlns:sodipodi="http://sodipodi.sourceforge.net/DTD/sodipodi-0.dtd"
   xmlns="http://www.w3.org/2000/svg"
   xmlns:svg="http://www.w3.org/2000/svg">
  <defs
     id="defs22" />
  <sodipodi:namedview
     id="namedview20"
     pagecolor="#505050"
     bordercolor="#eeeeee"
     borderopacity="1"
     inkscape:pageshadow="0"
     inkscape:pageopacity="0"
     inkscape:pagecheckerboard="0"
     showgrid="false"
     width="500px"
     inkscape:zoom="2.8717105"
     inkscape:cx="208.93471"
     inkscape:cy="141.72738"
     inkscape:window-width="2560"
     inkscape:window-height="1346"
     inkscape:window-x="-11"
     inkscape:window-y="-11"
     inkscape:window-maximized="1"
     inkscape:current-layer="svg18" />
  <path
     fill="#ffffff"
     d="M 508.36842,116.4281 H 363.63158 v 144.73684 h 144.73684 z"
     id="path2"
     style="stroke-width:3.61842" />
  <path
     fill="#ea4335"
     d="M 508.36842,326.29652 573.5,261.16494 h -65.13158 z"
     id="path4"
     style="stroke-width:3.61842" />
  <path
     fill="#fbbc04"
     d="M 573.5,116.4281 H 508.36842 V 261.16494 H 573.5 Z"
     id="path6"
     style="stroke-width:3.61842" />
  <path
     fill="#34a853"
     d="M 508.36842,261.16494 H 363.63158 v 65.13158 h 144.73684 z"
     id="path8"
     style="stroke-width:3.61842" />
  <path
     fill="#188038"
     d="m 298.5,261.16494 v 43.42105 c 0,11.99507 9.71546,21.71053 21.71053,21.71053 h 43.42105 v -65.13158 z"
     id="path10"
     style="stroke-width:3.61842" />
  <path
     fill="#1967d2"
     d="M 573.5,116.4281 V 73.007049 c 0,-11.995065 -9.71546,-21.710526 -21.71053,-21.710526 H 508.36842 V 116.4281 Z"
     id="path12"
     style="stroke-width:3.61842" />
  <path
     fill="#4285f4"
     d="M 508.36842,51.296523 H 320.21053 c -11.99507,0 -21.71053,9.715461 -21.71053,21.710526 V 261.16494 h 65.13158 V 116.4281 h 144.73684 z"
     id="path14"
     style="stroke-width:3.61842" />
  <path
     fill="#4285f4"
     d="m 393.32072,228.7077 c -5.40954,-3.6546 -9.1546,-8.99177 -11.19901,-16.04769 l 12.55592,-5.17435 c 1.1398,4.34211 3.12994,7.70724 5.9704,10.0954 2.82236,2.38816 6.25986,3.56414 10.27631,3.56414 4.10691,0 7.63487,-1.24835 10.58388,-3.74506 2.94902,-2.49671 4.43257,-5.68092 4.43257,-9.53454 0,-3.94408 -1.55592,-7.16447 -4.66776,-9.66119 -3.11185,-2.49671 -7.01974,-3.74506 -11.6875,-3.74506 h -7.25494 v -12.42928 h 6.51316 c 4.01645,0 7.39967,-1.08552 10.14967,-3.25658 2.75,-2.17105 4.125,-5.13815 4.125,-8.9194 0,-3.36514 -1.23026,-6.04277 -3.69079,-8.05099 -2.46052,-2.00822 -5.57237,-3.02138 -9.35362,-3.02138 -3.69079,0 -6.62171,0.97697 -8.79276,2.94901 a 17.310526,17.310526 0 0 0 -4.74013,7.25493 l -12.42928,-5.17434 c 1.64638,-4.66776 4.66777,-8.79276 9.10033,-12.35691 4.43257,-3.56414 10.0954,-5.35526 16.9704,-5.35526 5.08388,0 9.66118,0.97698 13.71381,2.94901 4.05263,1.97204 7.23684,4.70395 9.53454,8.17764 2.2977,3.49177 3.4375,7.39967 3.4375,11.74177 0,4.43257 -1.06743,8.17763 -3.2023,11.25329 -2.13487,3.07566 -4.75823,5.42763 -7.87007,7.07402 v 0.74177 a 23.899671,23.899671 0 0 1 10.0954,7.87007 c 2.62335,3.52796 3.94408,7.74342 3.94408,12.66447 0,4.92105 -1.24836,9.31744 -3.74507,13.17105 -2.49671,3.85362 -5.9523,6.8931 -10.33059,9.10033 -4.39638,2.20724 -9.33553,3.32895 -14.81744,3.32895 -6.35032,0.0181 -12.21217,-1.80921 -17.62171,-5.46382 z m 77.12665,-62.30921 -13.78619,9.96875 -6.89309,-10.45723 L 474.5,148.07119 h 9.48026 v 84.14638 h -13.53289 z"
     id="path16"
     style="stroke-width:3.61842" />
</svg>
