<?xml version="1.0" encoding="UTF-8" standalone="no"?>
<!-- Generator: Adobe Illustrator 15.0.2, SVG Export Plug-In . SVG Version: 6.00 Build 0)  -->

<svg
   version="1.1"
   id="_x30_1"
   x="0px"
   y="0px"
   width="500"
   height="300"
   viewBox="0 0 500 300"
   xml:space="preserve"
   sodipodi:docname="groupme_logo.svg"
   inkscape:version="1.1.1 (3bf5ae0d25, 2021-09-20)"
   xmlns:inkscape="http://www.inkscape.org/namespaces/inkscape"
   xmlns:sodipodi="http://sodipodi.sourceforge.net/DTD/sodipodi-0.dtd"
   xmlns="http://www.w3.org/2000/svg"
   xmlns:svg="http://www.w3.org/2000/svg"><defs
   id="defs11" /><sodipodi:namedview
   id="namedview9"
   pagecolor="#505050"
   bordercolor="#eeeeee"
   borderopacity="1"
   inkscape:pageshadow="0"
   inkscape:pageopacity="0"
   inkscape:pagecheckerboard="0"
   showgrid="false"
   inkscape:zoom="2.4496199"
   inkscape:cx="308.21108"
   inkscape:cy="155.53433"
   inkscape:window-width="2560"
   inkscape:window-height="1346"
   inkscape:window-x="-11"
   inkscape:window-y="-11"
   inkscape:window-maximized="1"
   inkscape:current-layer="_x30_1" />
<g
   id="g6"
   transform="matrix(0.32378252,0,0,0.32378234,86.839271,-10.842983)">
	<rect
   x="475.77701"
   y="311.987"
   style="fill:#00a0e9"
   width="56.428001"
   height="56.438"
   id="rect2" />
	<path
   style="fill:#00a0e9"
   d="M 712.234,79.333 H 295.761 c -89.044,0 -161.224,72.186 -161.224,161.224 v 416.477 c 0,89.035 72.179,161.221 161.224,161.221 h 138.617 l 68.904,110.414 68.92,-110.414 h 140.031 c 89.037,0 161.229,-72.186 161.229,-161.221 V 240.556 C 873.463,151.518 801.271,79.333 712.234,79.333 Z M 355.152,368.424 h 59.759 v -56.438 h -59.759 v -60.858 h 59.759 V 191.37 h 60.866 v 59.758 h 56.428 V 191.37 h 60.863 v 59.758 h 59.752 v 60.858 h -59.752 v 56.438 h 59.752 v 60.854 h -59.752 v 59.76 h -60.863 v -59.76 h -56.428 v 59.76 h -60.866 v -59.76 H 355.152 Z M 783.188,554.68 c 0,0 -80.344,151.32 -271.109,151.32 -2.641,0 -5.246,-0.033 -7.842,-0.08 -2.591,0.047 -5.2,0.08 -7.839,0.08 -190.76,0 -271.104,-151.32 -271.104,-151.32 0,0 -5.2,-9.854 -5.2,-20.477 -0.328,-7.666 3.421,-18.656 13.26,-25.129 5.472,-3.596 10.644,-5.376 15.44,-5.932 22.97,-2.437 36.282,12.52 47.229,29.6 12.09,18.846 81.835,101.418 208.212,104.578 126.383,-3.16 196.131,-85.732 208.217,-104.578 10.949,-17.08 24.742,-32.062 47.232,-29.6 4.795,0.556 9.971,2.336 15.438,5.932 9.844,6.473 13.674,15.592 13.328,25.121 -0.768,14.022 -5.262,20.485 -5.262,20.485 z"
   id="path4" />
</g>
</svg>
