<?xml version="1.0" encoding="UTF-8" standalone="no"?>
<!-- Generator: Adobe Illustrator 15.0.2, SVG Export Plug-In . SVG Version: 6.00 Build 0)  -->

<svg
   version="1.1"
   id="_x30_1"
   x="0px"
   y="0px"
   width="20.000002"
   height="22.988426"
   viewBox="0 0 20.000002 22.988427"
   xml:space="preserve"
   sodipodi:docname="groupme.svg"
   inkscape:version="1.1.1 (3bf5ae0d25, 2021-09-20)"
   xmlns:inkscape="http://www.inkscape.org/namespaces/inkscape"
   xmlns:sodipodi="http://sodipodi.sourceforge.net/DTD/sodipodi-0.dtd"
   xmlns="http://www.w3.org/2000/svg"
   xmlns:svg="http://www.w3.org/2000/svg"><defs
   id="defs711" /><sodipodi:namedview
   id="namedview709"
   pagecolor="#505050"
   bordercolor="#eeeeee"
   borderopacity="1"
   inkscape:pageshadow="0"
   inkscape:pageopacity="0"
   inkscape:pagecheckerboard="0"
   showgrid="false"
   fit-margin-top="0"
   fit-margin-left="0"
   fit-margin-right="0"
   fit-margin-bottom="0"
   inkscape:zoom="16"
   inkscape:cx="31.125"
   inkscape:cy="33"
   inkscape:window-width="2560"
   inkscape:window-height="1346"
   inkscape:window-x="-11"
   inkscape:window-y="-11"
   inkscape:window-maximized="1"
   inkscape:current-layer="_x30_1" />
<g
   id="g706"
   transform="matrix(0.02706635,0,0,0.02706635,-3.6414255,-2.1472547)">
	<rect
   x="475.77701"
   y="311.987"
   style="fill:#00a0e9"
   width="56.428001"
   height="56.438"
   id="rect702" />
	<path
   style="fill:#00a0e9"
   d="M 712.234,79.333 H 295.761 c -89.044,0 -161.224,72.186 -161.224,161.224 v 416.477 c 0,89.035 72.179,161.221 161.224,161.221 h 138.617 l 68.904,110.414 68.92,-110.414 h 140.031 c 89.037,0 161.229,-72.186 161.229,-161.221 V 240.556 C 873.463,151.518 801.271,79.333 712.234,79.333 Z M 355.152,368.424 h 59.759 v -56.438 h -59.759 v -60.858 h 59.759 V 191.37 h 60.866 v 59.758 h 56.428 V 191.37 h 60.863 v 59.758 h 59.752 v 60.858 h -59.752 v 56.438 h 59.752 v 60.854 h -59.752 v 59.76 h -60.863 v -59.76 h -56.428 v 59.76 h -60.866 v -59.76 H 355.152 Z M 783.188,554.68 c 0,0 -80.344,151.32 -271.109,151.32 -2.641,0 -5.246,-0.033 -7.842,-0.08 -2.591,0.047 -5.2,0.08 -7.839,0.08 -190.76,0 -271.104,-151.32 -271.104,-151.32 0,0 -5.2,-9.854 -5.2,-20.477 -0.328,-7.666 3.421,-18.656 13.26,-25.129 5.472,-3.596 10.644,-5.376 15.44,-5.932 22.97,-2.437 36.282,12.52 47.229,29.6 12.09,18.846 81.835,101.418 208.212,104.578 126.383,-3.16 196.131,-85.732 208.217,-104.578 10.949,-17.08 24.742,-32.062 47.232,-29.6 4.795,0.556 9.971,2.336 15.438,5.932 9.844,6.473 13.674,15.592 13.328,25.121 -0.768,14.022 -5.262,20.485 -5.262,20.485 z"
   id="path704" />
</g>
<path
   style="fill:#ffffff;stroke:#ffffff;stroke-width:0.0110492"
   d="M 7.5900925,10.272066 V 9.4654642 H 6.7830912 5.9760904 V 8.647863 7.8302618 H 6.7830912 7.5900925 V 7.0623605 6.2944587 H 6.7830912 5.9760904 V 5.4768578 4.6592564 H 6.7830912 7.5900925 V 3.8471552 3.0350538 h 0.8180019 0.8170011 l 0.00294,0.8094014 0.00281,0.8094012 0.7710005,0.00285 0.771001,0.00285 V 3.8473252 3.0351238 h 0.818002 0.818002 v 0.8121014 0.8121012 h 0.807001 0.807001 v 0.8176014 0.8176009 h -0.807001 -0.807001 v 0.7679018 0.7679013 h 0.807001 0.807001 V 8.647933 9.4655342 h -0.807001 -0.807001 v 0.8066018 0.806602 H 11.590849 10.772847 V 10.272036 9.4653342 l -0.771001,0.00287 -0.7710005,0.00288 -0.00281,0.8038018 -0.00294,0.803802 H 8.4080944 7.5900925 Z M 10.772297,7.0622705 V 6.2943693 H 9.9992968 9.2262955 v 0.7605012 c 0,0.4183007 0.00331,0.7639013 0.0073,0.7679013 0.00413,0.00406 0.3520006,0.00736 0.7730005,0.00736 h 0.766001 z"
   id="path972" /><path
   style="fill:#ffffff;stroke:#ffffff;stroke-width:0.0110492"
   d="M 9.4297961,16.949396 C 7.3915925,16.867396 5.5708895,16.136995 4.0711872,14.800514 3.4761863,14.270013 2.9041851,13.595162 2.5373845,12.990171 2.4473845,12.83627 2.3973843,12.72837 2.3553842,12.57127 c -0.02,-0.088 -0.03,-0.131601 -0.03,-0.260601 -7e-4,-0.1414 0.0019,-0.1623 0.03,-0.2431 0.08,-0.2284 0.2150005,-0.382601 0.4320007,-0.491901 0.1570003,-0.079 0.2530004,-0.1016 0.4310008,-0.1021 0.1800002,-5e-4 0.2980006,0.026 0.4530008,0.1017 0.2460003,0.1201 0.4200007,0.295501 0.6910012,0.696801 0.06,0.088 0.1620003,0.2249 0.2270003,0.303901 0.1530004,0.1856 0.5950009,0.626101 0.8010013,0.797402 1.1680019,0.974501 2.5350038,1.548932 4.0440068,1.699192 0.4100007,0.041 0.7139999,0.041 1.1381009,2.2e-4 1.362402,-0.1305 2.656305,-0.634501 3.745708,-1.459062 0.413,-0.3126 0.793001,-0.669101 1.083501,-1.015602 0.111,-0.132201 0.163,-0.202901 0.286,-0.383401 0.284001,-0.419 0.536001,-0.630101 0.851002,-0.713001 0.146,-0.038 0.35,-0.04 0.487,-0.0041 0.272001,0.071 0.516001,0.2685 0.611001,0.492801 0.07,0.1744 0.07,0.4457 -0.01,0.700501 -0.05,0.1573 -0.267,0.506901 -0.539001,0.868502 -0.244,0.3237 -0.466,0.577201 -0.790001,0.900901 -0.434,0.434301 -0.845001,0.772701 -1.320703,1.087852 -1.300401,0.861702 -2.711104,1.317661 -4.324607,1.397741 -0.198,0.0099 -1.0096008,0.012 -1.2221009,0.0038 z"
   id="path1011" /></svg>
