<?xml version="1.0" encoding="UTF-8" standalone="no"?>
<svg
   width="500"
   height="300"
   version="1.1"
   id="svg28"
   sodipodi:docname="Instagram_logo.svg"
   inkscape:version="1.1.1 (3bf5ae0d25, 2021-09-20)"
   xmlns:inkscape="http://www.inkscape.org/namespaces/inkscape"
   xmlns:sodipodi="http://sodipodi.sourceforge.net/DTD/sodipodi-0.dtd"
   xmlns:xlink="http://www.w3.org/1999/xlink"
   xmlns="http://www.w3.org/2000/svg"
   xmlns:svg="http://www.w3.org/2000/svg">
  <sodipodi:namedview
     id="namedview30"
     pagecolor="#505050"
     bordercolor="#eeeeee"
     borderopacity="1"
     inkscape:pageshadow="0"
     inkscape:pageopacity="0"
     inkscape:pagecheckerboard="0"
     showgrid="false"
     width="500px"
     inkscape:zoom="2.3382736"
     inkscape:cx="287.81919"
     inkscape:cy="177.48137"
     inkscape:window-width="2560"
     inkscape:window-height="1346"
     inkscape:window-x="-11"
     inkscape:window-y="-11"
     inkscape:window-maximized="1"
     inkscape:current-layer="svg28" />
  <defs
     id="defs20">
    <linearGradient
       id="b">
      <stop
         offset="0"
         stop-color="#3771c8"
         id="stop2" />
      <stop
         stop-color="#3771c8"
         offset=".128"
         id="stop4" />
      <stop
         offset="1"
         stop-color="#60f"
         stop-opacity="0"
         id="stop6" />
    </linearGradient>
    <linearGradient
       id="a">
      <stop
         offset="0"
         stop-color="#fd5"
         id="stop9" />
      <stop
         offset=".1"
         stop-color="#fd5"
         id="stop11" />
      <stop
         offset=".5"
         stop-color="#ff543e"
         id="stop13" />
      <stop
         offset="1"
         stop-color="#c837ab"
         id="stop15" />
    </linearGradient>
    <radialGradient
       id="c"
       cx="158.429"
       cy="578.08801"
       r="65"
       xlink:href="#a"
       gradientUnits="userSpaceOnUse"
       gradientTransform="matrix(0,-4.191862,3.8998245,0,-2068.8946,976.18087)"
       fx="158.429"
       fy="578.08801" />
    <radialGradient
       id="d"
       cx="147.694"
       cy="473.45499"
       r="65"
       xlink:href="#b"
       gradientUnits="userSpaceOnUse"
       gradientTransform="matrix(0.36788085,1.8373315,-7.5754605,1.5168263,3598.742,-953.73844)"
       fx="147.694"
       fy="473.45499" />
  </defs>
  <path
     fill="url(#c)"
     d="m 250.04491,15.968309 c -57.40498,0 -74.19376,0.05921 -77.45718,0.329938 -11.78047,0.979239 -19.11101,2.834083 -27.0972,6.810257 -6.15462,3.056157 -11.00851,6.59876 -15.79896,11.56475 -8.72432,9.056373 -14.01179,20.198121 -15.92586,33.442169 -0.93059,6.429561 -1.20131,7.740853 -1.25629,40.582367 -0.0212,10.94718 0,25.35446 0,44.6791 0,57.35845 0.0635,74.1303 0.3384,77.38738 0.95174,11.46324 2.74948,18.67533 6.55645,26.56424 7.27555,15.101 21.17102,26.43734 37.54102,30.66731 5.66816,1.45934 11.92853,2.26303 19.96547,2.64373 3.40513,0.14805 38.11207,0.2538 72.84017,0.2538 34.72808,0 69.45616,-0.0422 72.77669,-0.21151 9.30594,-0.43779 14.70973,-1.16323 20.68457,-2.70718 16.47575,-4.25112 30.11742,-15.41825 37.54102,-30.73075 3.73295,-7.69856 5.62587,-15.18561 6.48243,-26.0503 0.18613,-2.36878 0.26438,-40.13611 0.26438,-77.85267 0,-37.72292 -0.0846,-75.420438 -0.27071,-77.789222 -0.86715,-11.040233 -2.76006,-18.463838 -6.61357,-26.310439 -3.1619,-6.423211 -6.67278,-11.220001 -11.7699,-16.124657 -9.09655,-8.688365 -20.2214,-13.975832 -33.47813,-15.887781 -6.42322,-0.92848 -7.70278,-1.203427 -40.56968,-1.260532 z"
     id="path22"
     style="fill:url(#c);stroke-width:2.11498" />
  <path
     fill="url(#d)"
     d="m 250.04491,15.968309 c -57.40498,0 -74.19376,0.05921 -77.45718,0.329938 -11.78047,0.979239 -19.11101,2.834083 -27.0972,6.810257 -6.15462,3.056157 -11.00851,6.59876 -15.79896,11.56475 -8.72432,9.056373 -14.01179,20.198121 -15.92586,33.442169 -0.93059,6.429561 -1.20131,7.740853 -1.25629,40.582367 -0.0212,10.94718 0,25.35446 0,44.6791 0,57.35845 0.0635,74.1303 0.3384,77.38738 0.95174,11.46324 2.74948,18.67533 6.55645,26.56424 7.27555,15.101 21.17102,26.43734 37.54102,30.66731 5.66816,1.45934 11.92853,2.26303 19.96547,2.64373 3.40513,0.14805 38.11207,0.2538 72.84017,0.2538 34.72808,0 69.45616,-0.0422 72.77669,-0.21151 9.30594,-0.43779 14.70973,-1.16323 20.68457,-2.70718 16.47575,-4.25112 30.11742,-15.41825 37.54102,-30.73075 3.73295,-7.69856 5.62587,-15.18561 6.48243,-26.0503 0.18613,-2.36878 0.26438,-40.13611 0.26438,-77.85267 0,-37.72292 -0.0846,-75.420438 -0.27071,-77.789222 -0.86715,-11.040233 -2.76006,-18.463838 -6.61357,-26.310439 -3.1619,-6.423211 -6.67278,-11.220001 -11.7699,-16.124657 -9.09655,-8.688365 -20.2214,-13.975832 -33.47813,-15.887781 -6.42322,-0.92848 -7.70278,-1.203427 -40.56968,-1.260532 z"
     id="path24"
     style="fill:url(#d);stroke-width:2.11498" />
  <path
     fill="#ffffff"
     d="m 249.98145,51.923082 c -27.57097,0 -31.03109,0.120555 -41.85982,0.613347 -10.80758,0.494907 -18.18466,2.205932 -24.6396,4.716421 -6.67701,2.592974 -12.34094,6.061553 -17.98373,11.706453 -5.64701,5.642785 -9.11559,11.30672 -11.71702,17.981619 -2.51685,6.457056 -4.22998,13.836248 -4.71644,24.639608 -0.48432,10.82872 -0.61122,14.29095 -0.61122,41.86193 0,27.57097 0.12267,31.02051 0.61334,41.84925 0.49702,10.80759 2.20805,18.18466 4.71642,24.63959 2.59509,6.67702 6.06367,12.34096 11.70857,17.98374 5.64067,5.64702 11.30461,9.12405 17.97739,11.71703 6.45917,2.51049 13.83836,4.22151 24.64383,4.71642 10.82873,0.49279 14.28674,0.61335 41.85559,0.61335 27.5731,0 31.02264,-0.12056 41.85137,-0.61335 10.80759,-0.49491 18.19311,-2.20593 24.65228,-4.71642 6.6749,-2.59298 12.33038,-6.07001 17.97105,-11.71703 5.64702,-5.64278 9.11559,-11.30672 11.71703,-17.98161 2.49568,-6.45706 4.20883,-13.83626 4.71642,-24.63961 0.48644,-10.82873 0.61335,-14.28039 0.61335,-41.85136 0,-27.57098 -0.12691,-31.03109 -0.61335,-41.85983 -0.50759,-10.80757 -2.22074,-18.184652 -4.71642,-24.639593 -2.60144,-6.677014 -6.07001,-12.340949 -11.71703,-17.983734 -5.64702,-5.647016 -11.29403,-9.115594 -17.97739,-11.706453 -6.47186,-2.510489 -13.85317,-4.221514 -24.66075,-4.716421 -10.82874,-0.492792 -14.27617,-0.613347 -41.85559,-0.613347 z m -9.10713,18.294639 c 2.70296,-0.0042 5.71893,0 9.10713,0 27.10567,0 30.31834,0.09728 41.02229,0.583736 9.89814,0.452608 15.27021,2.106528 18.84877,3.496073 4.73757,1.840039 8.1152,4.039625 11.66627,7.592804 3.55317,3.553178 5.75276,6.937156 7.59702,11.674727 1.38955,3.574328 3.04558,8.946399 3.49608,18.844529 0.48645,10.70183 0.59219,13.91663 0.59219,41.0096 0,27.09299 -0.10578,30.30777 -0.59219,41.0096 -0.45261,9.89814 -2.10653,15.27021 -3.49608,18.84454 -1.84004,4.73756 -4.04385,8.11097 -7.59702,11.66204 -3.55318,3.55317 -6.92659,5.75276 -11.66627,7.5928 -3.57434,1.39588 -8.95063,3.04558 -18.84877,3.49818 -10.70183,0.48646 -13.91662,0.5922 -41.02229,0.5922 -27.10779,0 -30.32045,-0.10578 -41.02228,-0.5922 -9.89814,-0.45683 -15.27021,-2.11076 -18.85088,-3.50029 -4.73758,-1.84004 -8.12155,-4.03962 -11.67474,-7.59281 -3.55317,-3.55317 -5.75276,-6.9287 -7.59702,-11.66838 -1.38955,-3.57433 -3.04558,-8.9464 -3.49608,-18.84454 -0.48644,-10.70183 -0.58373,-13.91661 -0.58373,-41.02652 0,-27.1099 0.0973,-30.30776 0.58373,-41.00959 0.45262,-9.89814 2.10653,-15.270211 3.49608,-18.848768 1.84004,-4.737571 4.04385,-8.12155 7.59702,-11.674728 3.55319,-3.553178 6.93716,-5.752766 11.67474,-7.597034 3.57855,-1.39589 8.95274,-3.045581 18.85088,-3.500303 9.36516,-0.422997 12.99447,-0.549897 31.91515,-0.571046 z m 63.29733,16.856446 c -6.72566,0 -12.18233,5.45032 -12.18233,12.178099 0,6.725654 5.45667,12.182314 12.18233,12.182314 6.72566,0 12.18232,-5.45666 12.18232,-12.182314 0,-6.725663 -5.45666,-12.18233 -12.18232,-12.18233 z m -54.1902,14.233863 c -28.79131,0 -52.13442,23.3431 -52.13442,52.13443 0,28.79132 23.34311,52.12386 52.13442,52.12386 28.79132,0 52.12597,-23.33254 52.12597,-52.12386 0,-28.79133 -23.33676,-52.13443 -52.12808,-52.13443 z m 0,18.29463 c 18.68803,0 33.8398,15.14966 33.8398,33.8398 0,18.68803 -15.15177,33.83979 -33.8398,33.83979 -18.69014,0 -33.83979,-15.15176 -33.83979,-33.83979 0,-18.69014 15.14965,-33.8398 33.83979,-33.8398 z"
     id="path26"
     style="stroke-width:2.11498" />
</svg>
